%TF.GenerationSoftware,KiCad,Pcbnew,9.0.5*%
%TF.CreationDate,2025-11-10T11:20:35-08:00*%
%TF.ProjectId,project1_LED_Torch,70726f6a-6563-4743-915f-4c45445f546f,-*%
%TF.SameCoordinates,Original*%
%TF.FileFunction,Legend,Bot*%
%TF.FilePolarity,Positive*%
%FSLAX46Y46*%
G04 Gerber Fmt 4.6, Leading zero omitted, Abs format (unit mm)*
G04 Created by KiCad (PCBNEW 9.0.5) date 2025-11-10 11:20:35*
%MOMM*%
%LPD*%
G01*
G04 APERTURE LIST*
%ADD10C,0.100000*%
%ADD11C,0.010000*%
G04 APERTURE END LIST*
D10*
X161338972Y-140772419D02*
X161005639Y-141772419D01*
X161005639Y-141772419D02*
X160672306Y-140772419D01*
X159958020Y-141724800D02*
X160053258Y-141772419D01*
X160053258Y-141772419D02*
X160243734Y-141772419D01*
X160243734Y-141772419D02*
X160338972Y-141724800D01*
X160338972Y-141724800D02*
X160386591Y-141629561D01*
X160386591Y-141629561D02*
X160386591Y-141248609D01*
X160386591Y-141248609D02*
X160338972Y-141153371D01*
X160338972Y-141153371D02*
X160243734Y-141105752D01*
X160243734Y-141105752D02*
X160053258Y-141105752D01*
X160053258Y-141105752D02*
X159958020Y-141153371D01*
X159958020Y-141153371D02*
X159910401Y-141248609D01*
X159910401Y-141248609D02*
X159910401Y-141343847D01*
X159910401Y-141343847D02*
X160386591Y-141439085D01*
X159481829Y-141772419D02*
X159481829Y-141105752D01*
X159481829Y-141296228D02*
X159434210Y-141200990D01*
X159434210Y-141200990D02*
X159386591Y-141153371D01*
X159386591Y-141153371D02*
X159291353Y-141105752D01*
X159291353Y-141105752D02*
X159196115Y-141105752D01*
X158910400Y-141724800D02*
X158815162Y-141772419D01*
X158815162Y-141772419D02*
X158624686Y-141772419D01*
X158624686Y-141772419D02*
X158529448Y-141724800D01*
X158529448Y-141724800D02*
X158481829Y-141629561D01*
X158481829Y-141629561D02*
X158481829Y-141581942D01*
X158481829Y-141581942D02*
X158529448Y-141486704D01*
X158529448Y-141486704D02*
X158624686Y-141439085D01*
X158624686Y-141439085D02*
X158767543Y-141439085D01*
X158767543Y-141439085D02*
X158862781Y-141391466D01*
X158862781Y-141391466D02*
X158910400Y-141296228D01*
X158910400Y-141296228D02*
X158910400Y-141248609D01*
X158910400Y-141248609D02*
X158862781Y-141153371D01*
X158862781Y-141153371D02*
X158767543Y-141105752D01*
X158767543Y-141105752D02*
X158624686Y-141105752D01*
X158624686Y-141105752D02*
X158529448Y-141153371D01*
X158053257Y-141772419D02*
X158053257Y-141105752D01*
X158053257Y-140772419D02*
X158100876Y-140820038D01*
X158100876Y-140820038D02*
X158053257Y-140867657D01*
X158053257Y-140867657D02*
X158005638Y-140820038D01*
X158005638Y-140820038D02*
X158053257Y-140772419D01*
X158053257Y-140772419D02*
X158053257Y-140867657D01*
X157434210Y-141772419D02*
X157529448Y-141724800D01*
X157529448Y-141724800D02*
X157577067Y-141677180D01*
X157577067Y-141677180D02*
X157624686Y-141581942D01*
X157624686Y-141581942D02*
X157624686Y-141296228D01*
X157624686Y-141296228D02*
X157577067Y-141200990D01*
X157577067Y-141200990D02*
X157529448Y-141153371D01*
X157529448Y-141153371D02*
X157434210Y-141105752D01*
X157434210Y-141105752D02*
X157291353Y-141105752D01*
X157291353Y-141105752D02*
X157196115Y-141153371D01*
X157196115Y-141153371D02*
X157148496Y-141200990D01*
X157148496Y-141200990D02*
X157100877Y-141296228D01*
X157100877Y-141296228D02*
X157100877Y-141581942D01*
X157100877Y-141581942D02*
X157148496Y-141677180D01*
X157148496Y-141677180D02*
X157196115Y-141724800D01*
X157196115Y-141724800D02*
X157291353Y-141772419D01*
X157291353Y-141772419D02*
X157434210Y-141772419D01*
X156672305Y-141105752D02*
X156672305Y-141772419D01*
X156672305Y-141200990D02*
X156624686Y-141153371D01*
X156624686Y-141153371D02*
X156529448Y-141105752D01*
X156529448Y-141105752D02*
X156386591Y-141105752D01*
X156386591Y-141105752D02*
X156291353Y-141153371D01*
X156291353Y-141153371D02*
X156243734Y-141248609D01*
X156243734Y-141248609D02*
X156243734Y-141772419D01*
X154481829Y-141772419D02*
X155053257Y-141772419D01*
X154767543Y-141772419D02*
X154767543Y-140772419D01*
X154767543Y-140772419D02*
X154862781Y-140915276D01*
X154862781Y-140915276D02*
X154958019Y-141010514D01*
X154958019Y-141010514D02*
X155053257Y-141058133D01*
X154053257Y-141677180D02*
X154005638Y-141724800D01*
X154005638Y-141724800D02*
X154053257Y-141772419D01*
X154053257Y-141772419D02*
X154100876Y-141724800D01*
X154100876Y-141724800D02*
X154053257Y-141677180D01*
X154053257Y-141677180D02*
X154053257Y-141772419D01*
X153386591Y-140772419D02*
X153291353Y-140772419D01*
X153291353Y-140772419D02*
X153196115Y-140820038D01*
X153196115Y-140820038D02*
X153148496Y-140867657D01*
X153148496Y-140867657D02*
X153100877Y-140962895D01*
X153100877Y-140962895D02*
X153053258Y-141153371D01*
X153053258Y-141153371D02*
X153053258Y-141391466D01*
X153053258Y-141391466D02*
X153100877Y-141581942D01*
X153100877Y-141581942D02*
X153148496Y-141677180D01*
X153148496Y-141677180D02*
X153196115Y-141724800D01*
X153196115Y-141724800D02*
X153291353Y-141772419D01*
X153291353Y-141772419D02*
X153386591Y-141772419D01*
X153386591Y-141772419D02*
X153481829Y-141724800D01*
X153481829Y-141724800D02*
X153529448Y-141677180D01*
X153529448Y-141677180D02*
X153577067Y-141581942D01*
X153577067Y-141581942D02*
X153624686Y-141391466D01*
X153624686Y-141391466D02*
X153624686Y-141153371D01*
X153624686Y-141153371D02*
X153577067Y-140962895D01*
X153577067Y-140962895D02*
X153529448Y-140867657D01*
X153529448Y-140867657D02*
X153481829Y-140820038D01*
X153481829Y-140820038D02*
X153386591Y-140772419D01*
D11*
%TO.C,REF\u002A\u002A*%
X159954562Y-134532850D02*
X160037313Y-134560053D01*
X160112406Y-134605484D01*
X160184298Y-134671302D01*
X160222846Y-134715567D01*
X160262256Y-134773961D01*
X160287446Y-134834586D01*
X160300861Y-134903865D01*
X160304948Y-134988222D01*
X160304669Y-135034307D01*
X160302460Y-135075450D01*
X160296894Y-135107582D01*
X160286586Y-135138122D01*
X160270148Y-135174489D01*
X160256200Y-135201728D01*
X160197665Y-135287429D01*
X160125619Y-135356617D01*
X160041947Y-135407741D01*
X159948531Y-135439250D01*
X159915434Y-135446225D01*
X159874960Y-135453094D01*
X159841999Y-135454919D01*
X159807698Y-135451947D01*
X159763200Y-135444426D01*
X159711934Y-135432002D01*
X159621434Y-135394112D01*
X159542345Y-135339836D01*
X159476528Y-135271770D01*
X159425840Y-135192511D01*
X159392140Y-135104654D01*
X159377286Y-135010795D01*
X159383136Y-134913530D01*
X159409399Y-134817220D01*
X159454418Y-134728494D01*
X159515373Y-134653419D01*
X159590184Y-134593641D01*
X159676768Y-134550809D01*
X159773043Y-134526571D01*
X159876928Y-134522576D01*
X159954562Y-134532850D01*
G36*
X159954562Y-134532850D02*
G01*
X160037313Y-134560053D01*
X160112406Y-134605484D01*
X160184298Y-134671302D01*
X160222846Y-134715567D01*
X160262256Y-134773961D01*
X160287446Y-134834586D01*
X160300861Y-134903865D01*
X160304948Y-134988222D01*
X160304669Y-135034307D01*
X160302460Y-135075450D01*
X160296894Y-135107582D01*
X160286586Y-135138122D01*
X160270148Y-135174489D01*
X160256200Y-135201728D01*
X160197665Y-135287429D01*
X160125619Y-135356617D01*
X160041947Y-135407741D01*
X159948531Y-135439250D01*
X159915434Y-135446225D01*
X159874960Y-135453094D01*
X159841999Y-135454919D01*
X159807698Y-135451947D01*
X159763200Y-135444426D01*
X159711934Y-135432002D01*
X159621434Y-135394112D01*
X159542345Y-135339836D01*
X159476528Y-135271770D01*
X159425840Y-135192511D01*
X159392140Y-135104654D01*
X159377286Y-135010795D01*
X159383136Y-134913530D01*
X159409399Y-134817220D01*
X159454418Y-134728494D01*
X159515373Y-134653419D01*
X159590184Y-134593641D01*
X159676768Y-134550809D01*
X159773043Y-134526571D01*
X159876928Y-134522576D01*
X159954562Y-134532850D01*
G37*
X157488711Y-135462033D02*
X157584268Y-135479523D01*
X157748558Y-135524564D01*
X157902589Y-135587656D01*
X158048509Y-135669915D01*
X158188466Y-135772457D01*
X158324608Y-135896399D01*
X158368473Y-135941661D01*
X158480758Y-136073865D01*
X158573972Y-136211832D01*
X158650719Y-136359750D01*
X158713603Y-136521803D01*
X158717420Y-136533391D01*
X158767507Y-136719392D01*
X158800899Y-136915521D01*
X158817584Y-137117568D01*
X158817551Y-137321325D01*
X158800791Y-137522581D01*
X158767292Y-137717128D01*
X158717044Y-137900756D01*
X158673190Y-138018053D01*
X158595348Y-138180951D01*
X158501828Y-138334866D01*
X158394822Y-138476671D01*
X158276519Y-138603239D01*
X158149111Y-138711441D01*
X158071606Y-138764120D01*
X157944725Y-138833750D01*
X157807243Y-138892468D01*
X157665716Y-138937587D01*
X157526702Y-138966422D01*
X157512597Y-138968106D01*
X157469153Y-138971434D01*
X157411723Y-138974275D01*
X157346122Y-138976373D01*
X157278167Y-138977468D01*
X157151378Y-138975140D01*
X157003673Y-138962136D01*
X156865779Y-138937133D01*
X156732014Y-138899318D01*
X156708562Y-138890889D01*
X156660612Y-138871408D01*
X156604140Y-138846473D01*
X156542379Y-138817722D01*
X156478563Y-138786790D01*
X156415926Y-138755315D01*
X156357703Y-138724934D01*
X156307127Y-138697283D01*
X156267433Y-138673999D01*
X156241854Y-138656718D01*
X156233625Y-138647079D01*
X156235076Y-138643984D01*
X156246250Y-138624079D01*
X156267134Y-138588420D01*
X156296265Y-138539459D01*
X156332181Y-138479646D01*
X156373420Y-138411433D01*
X156418517Y-138337271D01*
X156599785Y-138040008D01*
X156646315Y-138084539D01*
X156737723Y-138162865D01*
X156851334Y-138237439D01*
X156969122Y-138291474D01*
X157089559Y-138324290D01*
X157211117Y-138335211D01*
X157252585Y-138333868D01*
X157370080Y-138315612D01*
X157480089Y-138276617D01*
X157581430Y-138217670D01*
X157672921Y-138139557D01*
X157753380Y-138043064D01*
X157821627Y-137928978D01*
X157837908Y-137894724D01*
X157883982Y-137771240D01*
X157919106Y-137632918D01*
X157943197Y-137483561D01*
X157956173Y-137326973D01*
X157957949Y-137166956D01*
X157948443Y-137007314D01*
X157927572Y-136851850D01*
X157895252Y-136704366D01*
X157851399Y-136568667D01*
X157813982Y-136482076D01*
X157749185Y-136368688D01*
X157673772Y-136275070D01*
X157587418Y-136200959D01*
X157489795Y-136146094D01*
X157380577Y-136110212D01*
X157259439Y-136093051D01*
X157190038Y-136091880D01*
X157067168Y-136106141D01*
X156951664Y-136141241D01*
X156844953Y-136196682D01*
X156748464Y-136271964D01*
X156732720Y-136286440D01*
X156702150Y-136312962D01*
X156679809Y-136330138D01*
X156669691Y-136334787D01*
X156667706Y-136332597D01*
X156653241Y-136313721D01*
X156629400Y-136280397D01*
X156598029Y-136235380D01*
X156560974Y-136181425D01*
X156520083Y-136121285D01*
X156477202Y-136057718D01*
X156434178Y-135993476D01*
X156392857Y-135931315D01*
X156355086Y-135873991D01*
X156322712Y-135824257D01*
X156297582Y-135784868D01*
X156281542Y-135758580D01*
X156276439Y-135748147D01*
X156281050Y-135743941D01*
X156300267Y-135738933D01*
X156309838Y-135736386D01*
X156337809Y-135725249D01*
X156379448Y-135706802D01*
X156430995Y-135682725D01*
X156488690Y-135654699D01*
X156499957Y-135649154D01*
X156677687Y-135569889D01*
X156847490Y-135510385D01*
X157011430Y-135470245D01*
X157171571Y-135449071D01*
X157329977Y-135446466D01*
X157488711Y-135462033D01*
G36*
X157488711Y-135462033D02*
G01*
X157584268Y-135479523D01*
X157748558Y-135524564D01*
X157902589Y-135587656D01*
X158048509Y-135669915D01*
X158188466Y-135772457D01*
X158324608Y-135896399D01*
X158368473Y-135941661D01*
X158480758Y-136073865D01*
X158573972Y-136211832D01*
X158650719Y-136359750D01*
X158713603Y-136521803D01*
X158717420Y-136533391D01*
X158767507Y-136719392D01*
X158800899Y-136915521D01*
X158817584Y-137117568D01*
X158817551Y-137321325D01*
X158800791Y-137522581D01*
X158767292Y-137717128D01*
X158717044Y-137900756D01*
X158673190Y-138018053D01*
X158595348Y-138180951D01*
X158501828Y-138334866D01*
X158394822Y-138476671D01*
X158276519Y-138603239D01*
X158149111Y-138711441D01*
X158071606Y-138764120D01*
X157944725Y-138833750D01*
X157807243Y-138892468D01*
X157665716Y-138937587D01*
X157526702Y-138966422D01*
X157512597Y-138968106D01*
X157469153Y-138971434D01*
X157411723Y-138974275D01*
X157346122Y-138976373D01*
X157278167Y-138977468D01*
X157151378Y-138975140D01*
X157003673Y-138962136D01*
X156865779Y-138937133D01*
X156732014Y-138899318D01*
X156708562Y-138890889D01*
X156660612Y-138871408D01*
X156604140Y-138846473D01*
X156542379Y-138817722D01*
X156478563Y-138786790D01*
X156415926Y-138755315D01*
X156357703Y-138724934D01*
X156307127Y-138697283D01*
X156267433Y-138673999D01*
X156241854Y-138656718D01*
X156233625Y-138647079D01*
X156235076Y-138643984D01*
X156246250Y-138624079D01*
X156267134Y-138588420D01*
X156296265Y-138539459D01*
X156332181Y-138479646D01*
X156373420Y-138411433D01*
X156418517Y-138337271D01*
X156599785Y-138040008D01*
X156646315Y-138084539D01*
X156737723Y-138162865D01*
X156851334Y-138237439D01*
X156969122Y-138291474D01*
X157089559Y-138324290D01*
X157211117Y-138335211D01*
X157252585Y-138333868D01*
X157370080Y-138315612D01*
X157480089Y-138276617D01*
X157581430Y-138217670D01*
X157672921Y-138139557D01*
X157753380Y-138043064D01*
X157821627Y-137928978D01*
X157837908Y-137894724D01*
X157883982Y-137771240D01*
X157919106Y-137632918D01*
X157943197Y-137483561D01*
X157956173Y-137326973D01*
X157957949Y-137166956D01*
X157948443Y-137007314D01*
X157927572Y-136851850D01*
X157895252Y-136704366D01*
X157851399Y-136568667D01*
X157813982Y-136482076D01*
X157749185Y-136368688D01*
X157673772Y-136275070D01*
X157587418Y-136200959D01*
X157489795Y-136146094D01*
X157380577Y-136110212D01*
X157259439Y-136093051D01*
X157190038Y-136091880D01*
X157067168Y-136106141D01*
X156951664Y-136141241D01*
X156844953Y-136196682D01*
X156748464Y-136271964D01*
X156732720Y-136286440D01*
X156702150Y-136312962D01*
X156679809Y-136330138D01*
X156669691Y-136334787D01*
X156667706Y-136332597D01*
X156653241Y-136313721D01*
X156629400Y-136280397D01*
X156598029Y-136235380D01*
X156560974Y-136181425D01*
X156520083Y-136121285D01*
X156477202Y-136057718D01*
X156434178Y-135993476D01*
X156392857Y-135931315D01*
X156355086Y-135873991D01*
X156322712Y-135824257D01*
X156297582Y-135784868D01*
X156281542Y-135758580D01*
X156276439Y-135748147D01*
X156281050Y-135743941D01*
X156300267Y-135738933D01*
X156309838Y-135736386D01*
X156337809Y-135725249D01*
X156379448Y-135706802D01*
X156430995Y-135682725D01*
X156488690Y-135654699D01*
X156499957Y-135649154D01*
X156677687Y-135569889D01*
X156847490Y-135510385D01*
X157011430Y-135470245D01*
X157171571Y-135449071D01*
X157329977Y-135446466D01*
X157488711Y-135462033D01*
G37*
X153685994Y-137742711D02*
X153685268Y-137820158D01*
X153676689Y-137971594D01*
X153657833Y-138108283D01*
X153627837Y-138234276D01*
X153585836Y-138353625D01*
X153530969Y-138470381D01*
X153464167Y-138581179D01*
X153373363Y-138694739D01*
X153269708Y-138790211D01*
X153153887Y-138867073D01*
X153026586Y-138924797D01*
X152888489Y-138962858D01*
X152850793Y-138968666D01*
X152771752Y-138974396D01*
X152683629Y-138974583D01*
X152594236Y-138969539D01*
X152511384Y-138959578D01*
X152442887Y-138945012D01*
X152412035Y-138935364D01*
X152334730Y-138905123D01*
X152257679Y-138867617D01*
X152188200Y-138826614D01*
X152133615Y-138785879D01*
X152110916Y-138766505D01*
X152088201Y-138748662D01*
X152076779Y-138741778D01*
X152075537Y-138743424D01*
X152072728Y-138761205D01*
X152070776Y-138794370D01*
X152070045Y-138837733D01*
X152070045Y-138933689D01*
X151211896Y-138933689D01*
X151246161Y-138872974D01*
X151251355Y-138863868D01*
X151259715Y-138849249D01*
X151267288Y-138835173D01*
X151274112Y-138820540D01*
X151280227Y-138804249D01*
X151285673Y-138785198D01*
X151290487Y-138762286D01*
X151294708Y-138734413D01*
X151298377Y-138700478D01*
X151301531Y-138659379D01*
X151304211Y-138610015D01*
X151306454Y-138551286D01*
X151308299Y-138482090D01*
X151309787Y-138401326D01*
X151310955Y-138307894D01*
X151311844Y-138200692D01*
X151312491Y-138078620D01*
X151312936Y-137940576D01*
X151313218Y-137785459D01*
X151313375Y-137612168D01*
X151313448Y-137419603D01*
X151313474Y-137206662D01*
X151313485Y-137070530D01*
X152115200Y-137070530D01*
X152115200Y-138220721D01*
X152185756Y-138267089D01*
X152226417Y-138290791D01*
X152280546Y-138316639D01*
X152329689Y-138334829D01*
X152393165Y-138350551D01*
X152489331Y-138361541D01*
X152573900Y-138353365D01*
X152647219Y-138325805D01*
X152709637Y-138278642D01*
X152761502Y-138211658D01*
X152803160Y-138124633D01*
X152834962Y-138017350D01*
X152837545Y-138005009D01*
X152846000Y-137943772D01*
X152851663Y-137866692D01*
X152854576Y-137779002D01*
X152854783Y-137685934D01*
X152852330Y-137592720D01*
X152847261Y-137504594D01*
X152839619Y-137426788D01*
X152829448Y-137364533D01*
X152828167Y-137358666D01*
X152799126Y-137248121D01*
X152764610Y-137157575D01*
X152723456Y-137084953D01*
X152674499Y-137028181D01*
X152616574Y-136985184D01*
X152584620Y-136969615D01*
X152511784Y-136950722D01*
X152430443Y-136947465D01*
X152345319Y-136959389D01*
X152261133Y-136986040D01*
X152182608Y-137026962D01*
X152115200Y-137070530D01*
X151313485Y-137070530D01*
X151313493Y-136972245D01*
X151313689Y-135287378D01*
X152219017Y-135287378D01*
X152194585Y-135324067D01*
X152188318Y-135333647D01*
X152162208Y-135379981D01*
X152144469Y-135427102D01*
X152132908Y-135482251D01*
X152125331Y-135552667D01*
X152124839Y-135559650D01*
X152123062Y-135597641D01*
X152121444Y-135651576D01*
X152119999Y-135718703D01*
X152118740Y-135796271D01*
X152117680Y-135881528D01*
X152116829Y-135971724D01*
X152116203Y-136064107D01*
X152115812Y-136155925D01*
X152115670Y-136244427D01*
X152115790Y-136326862D01*
X152116183Y-136400479D01*
X152116862Y-136462526D01*
X152117841Y-136510251D01*
X152119132Y-136540904D01*
X152120747Y-136551733D01*
X152128957Y-136547333D01*
X152150647Y-136532362D01*
X152180014Y-136510448D01*
X152228879Y-136476236D01*
X152317125Y-136429714D01*
X152415916Y-136396046D01*
X152528510Y-136374231D01*
X152658164Y-136363265D01*
X152750670Y-136362219D01*
X152872011Y-136372014D01*
X152982099Y-136396174D01*
X153085389Y-136435785D01*
X153186338Y-136491932D01*
X153231503Y-136522883D01*
X153336911Y-136614115D01*
X153428538Y-136723106D01*
X153506332Y-136849726D01*
X153570241Y-136993845D01*
X153620214Y-137155332D01*
X153656198Y-137334059D01*
X153678143Y-137529895D01*
X153683900Y-137685934D01*
X153685994Y-137742711D01*
G36*
X153685994Y-137742711D02*
G01*
X153685268Y-137820158D01*
X153676689Y-137971594D01*
X153657833Y-138108283D01*
X153627837Y-138234276D01*
X153585836Y-138353625D01*
X153530969Y-138470381D01*
X153464167Y-138581179D01*
X153373363Y-138694739D01*
X153269708Y-138790211D01*
X153153887Y-138867073D01*
X153026586Y-138924797D01*
X152888489Y-138962858D01*
X152850793Y-138968666D01*
X152771752Y-138974396D01*
X152683629Y-138974583D01*
X152594236Y-138969539D01*
X152511384Y-138959578D01*
X152442887Y-138945012D01*
X152412035Y-138935364D01*
X152334730Y-138905123D01*
X152257679Y-138867617D01*
X152188200Y-138826614D01*
X152133615Y-138785879D01*
X152110916Y-138766505D01*
X152088201Y-138748662D01*
X152076779Y-138741778D01*
X152075537Y-138743424D01*
X152072728Y-138761205D01*
X152070776Y-138794370D01*
X152070045Y-138837733D01*
X152070045Y-138933689D01*
X151211896Y-138933689D01*
X151246161Y-138872974D01*
X151251355Y-138863868D01*
X151259715Y-138849249D01*
X151267288Y-138835173D01*
X151274112Y-138820540D01*
X151280227Y-138804249D01*
X151285673Y-138785198D01*
X151290487Y-138762286D01*
X151294708Y-138734413D01*
X151298377Y-138700478D01*
X151301531Y-138659379D01*
X151304211Y-138610015D01*
X151306454Y-138551286D01*
X151308299Y-138482090D01*
X151309787Y-138401326D01*
X151310955Y-138307894D01*
X151311844Y-138200692D01*
X151312491Y-138078620D01*
X151312936Y-137940576D01*
X151313218Y-137785459D01*
X151313375Y-137612168D01*
X151313448Y-137419603D01*
X151313474Y-137206662D01*
X151313485Y-137070530D01*
X152115200Y-137070530D01*
X152115200Y-138220721D01*
X152185756Y-138267089D01*
X152226417Y-138290791D01*
X152280546Y-138316639D01*
X152329689Y-138334829D01*
X152393165Y-138350551D01*
X152489331Y-138361541D01*
X152573900Y-138353365D01*
X152647219Y-138325805D01*
X152709637Y-138278642D01*
X152761502Y-138211658D01*
X152803160Y-138124633D01*
X152834962Y-138017350D01*
X152837545Y-138005009D01*
X152846000Y-137943772D01*
X152851663Y-137866692D01*
X152854576Y-137779002D01*
X152854783Y-137685934D01*
X152852330Y-137592720D01*
X152847261Y-137504594D01*
X152839619Y-137426788D01*
X152829448Y-137364533D01*
X152828167Y-137358666D01*
X152799126Y-137248121D01*
X152764610Y-137157575D01*
X152723456Y-137084953D01*
X152674499Y-137028181D01*
X152616574Y-136985184D01*
X152584620Y-136969615D01*
X152511784Y-136950722D01*
X152430443Y-136947465D01*
X152345319Y-136959389D01*
X152261133Y-136986040D01*
X152182608Y-137026962D01*
X152115200Y-137070530D01*
X151313485Y-137070530D01*
X151313493Y-136972245D01*
X151313689Y-135287378D01*
X152219017Y-135287378D01*
X152194585Y-135324067D01*
X152188318Y-135333647D01*
X152162208Y-135379981D01*
X152144469Y-135427102D01*
X152132908Y-135482251D01*
X152125331Y-135552667D01*
X152124839Y-135559650D01*
X152123062Y-135597641D01*
X152121444Y-135651576D01*
X152119999Y-135718703D01*
X152118740Y-135796271D01*
X152117680Y-135881528D01*
X152116829Y-135971724D01*
X152116203Y-136064107D01*
X152115812Y-136155925D01*
X152115670Y-136244427D01*
X152115790Y-136326862D01*
X152116183Y-136400479D01*
X152116862Y-136462526D01*
X152117841Y-136510251D01*
X152119132Y-136540904D01*
X152120747Y-136551733D01*
X152128957Y-136547333D01*
X152150647Y-136532362D01*
X152180014Y-136510448D01*
X152228879Y-136476236D01*
X152317125Y-136429714D01*
X152415916Y-136396046D01*
X152528510Y-136374231D01*
X152658164Y-136363265D01*
X152750670Y-136362219D01*
X152872011Y-136372014D01*
X152982099Y-136396174D01*
X153085389Y-136435785D01*
X153186338Y-136491932D01*
X153231503Y-136522883D01*
X153336911Y-136614115D01*
X153428538Y-136723106D01*
X153506332Y-136849726D01*
X153570241Y-136993845D01*
X153620214Y-137155332D01*
X153656198Y-137334059D01*
X153678143Y-137529895D01*
X153683900Y-137685934D01*
X153685994Y-137742711D01*
G37*
X156227755Y-138143467D02*
X156227261Y-138177363D01*
X156223632Y-138252202D01*
X156216022Y-138314401D01*
X156203688Y-138370984D01*
X156159313Y-138497076D01*
X156096400Y-138611679D01*
X156016238Y-138712568D01*
X155919740Y-138798924D01*
X155807822Y-138869932D01*
X155681397Y-138924776D01*
X155541378Y-138962638D01*
X155505149Y-138968351D01*
X155426155Y-138974313D01*
X155337841Y-138974646D01*
X155248075Y-138969659D01*
X155164722Y-138959666D01*
X155095651Y-138944978D01*
X155009187Y-138914749D01*
X154899286Y-138860057D01*
X154801956Y-138792543D01*
X154739867Y-138741556D01*
X154736605Y-138837622D01*
X154733343Y-138933689D01*
X154310450Y-138933689D01*
X154299543Y-138933686D01*
X154205056Y-138933380D01*
X154118331Y-138932616D01*
X154041837Y-138931451D01*
X153978043Y-138929942D01*
X153929418Y-138928147D01*
X153898433Y-138926121D01*
X153887556Y-138923922D01*
X153887578Y-138923463D01*
X153894614Y-138907910D01*
X153910434Y-138885071D01*
X153914734Y-138879638D01*
X153925777Y-138865606D01*
X153935311Y-138852186D01*
X153943461Y-138837722D01*
X153950352Y-138820556D01*
X153956111Y-138799034D01*
X153960862Y-138771498D01*
X153964731Y-138736292D01*
X153967844Y-138691760D01*
X153970325Y-138636246D01*
X153972300Y-138568093D01*
X153973894Y-138485645D01*
X153975234Y-138387246D01*
X153976444Y-138271239D01*
X153977649Y-138135968D01*
X153978595Y-138024586D01*
X154779378Y-138024586D01*
X154779378Y-138220462D01*
X154824048Y-138276973D01*
X154836785Y-138292212D01*
X154883604Y-138334844D01*
X154944255Y-138370672D01*
X154954897Y-138375850D01*
X154993676Y-138392745D01*
X155028692Y-138402909D01*
X155068722Y-138408325D01*
X155122541Y-138410978D01*
X155140648Y-138411383D01*
X155216011Y-138408540D01*
X155276743Y-138396620D01*
X155328452Y-138374037D01*
X155376746Y-138339211D01*
X155381803Y-138334798D01*
X155430272Y-138279160D01*
X155458459Y-138215333D01*
X155467752Y-138140282D01*
X155460520Y-138068693D01*
X155435796Y-138005645D01*
X155391249Y-137947758D01*
X155336319Y-137900808D01*
X155263894Y-137860961D01*
X155177340Y-137833263D01*
X155074670Y-137817096D01*
X154953894Y-137811842D01*
X154945007Y-137811857D01*
X154889660Y-137812655D01*
X154842736Y-137814488D01*
X154808953Y-137817111D01*
X154793028Y-137820274D01*
X154788943Y-137826741D01*
X154784572Y-137848875D01*
X154781604Y-137887988D01*
X154779914Y-137945939D01*
X154779378Y-138024586D01*
X153978595Y-138024586D01*
X153978975Y-137979778D01*
X153980228Y-137837012D01*
X153981651Y-137691942D01*
X153983176Y-137566027D01*
X153984933Y-137457436D01*
X153987051Y-137364334D01*
X153989660Y-137284891D01*
X153992890Y-137217273D01*
X153996869Y-137159649D01*
X154001728Y-137110185D01*
X154007597Y-137067050D01*
X154014604Y-137028410D01*
X154022880Y-136992434D01*
X154032554Y-136957289D01*
X154043756Y-136921142D01*
X154056616Y-136882161D01*
X154072090Y-136839091D01*
X154114994Y-136746871D01*
X154168735Y-136667099D01*
X154237576Y-136592965D01*
X154315185Y-136529405D01*
X154419761Y-136467725D01*
X154539244Y-136420202D01*
X154674508Y-136386567D01*
X154826426Y-136366552D01*
X154995872Y-136359889D01*
X155053890Y-136360287D01*
X155119398Y-136362335D01*
X155180693Y-136366704D01*
X155242097Y-136374035D01*
X155307932Y-136384969D01*
X155382520Y-136400147D01*
X155470184Y-136420209D01*
X155575245Y-136445797D01*
X155603806Y-136452820D01*
X155679054Y-136470776D01*
X155749388Y-136486820D01*
X155810567Y-136500028D01*
X155858354Y-136509474D01*
X155888511Y-136514231D01*
X155916783Y-136517910D01*
X155943060Y-136523187D01*
X155953059Y-136527942D01*
X155949952Y-136536781D01*
X155939194Y-136564072D01*
X155921864Y-136606906D01*
X155899126Y-136662425D01*
X155872147Y-136727772D01*
X155842090Y-136800089D01*
X155835493Y-136815879D01*
X155796907Y-136906484D01*
X155765768Y-136976217D01*
X155741917Y-137025405D01*
X155725198Y-137054374D01*
X155715454Y-137063452D01*
X155707766Y-137061405D01*
X155681415Y-137051760D01*
X155642982Y-137036190D01*
X155597822Y-137016815D01*
X155503293Y-136978814D01*
X155366480Y-136937780D01*
X155225289Y-136912612D01*
X155187314Y-136908611D01*
X155084059Y-136906447D01*
X154996952Y-136919622D01*
X154925129Y-136948756D01*
X154867731Y-136994466D01*
X154823896Y-137057372D01*
X154792762Y-137138092D01*
X154773470Y-137237245D01*
X154766050Y-137296224D01*
X154927936Y-137289445D01*
X155054495Y-137287813D01*
X155205951Y-137294194D01*
X155354396Y-137308777D01*
X155490578Y-137330882D01*
X155555245Y-137345821D01*
X155687490Y-137388741D01*
X155809762Y-137445340D01*
X155919685Y-137514017D01*
X156014883Y-137593170D01*
X156092980Y-137681196D01*
X156151599Y-137776493D01*
X156175595Y-137828864D01*
X156201232Y-137899590D01*
X156217478Y-137970812D01*
X156225822Y-138049712D01*
X156227690Y-138140282D01*
X156227755Y-138143467D01*
G36*
X156227755Y-138143467D02*
G01*
X156227261Y-138177363D01*
X156223632Y-138252202D01*
X156216022Y-138314401D01*
X156203688Y-138370984D01*
X156159313Y-138497076D01*
X156096400Y-138611679D01*
X156016238Y-138712568D01*
X155919740Y-138798924D01*
X155807822Y-138869932D01*
X155681397Y-138924776D01*
X155541378Y-138962638D01*
X155505149Y-138968351D01*
X155426155Y-138974313D01*
X155337841Y-138974646D01*
X155248075Y-138969659D01*
X155164722Y-138959666D01*
X155095651Y-138944978D01*
X155009187Y-138914749D01*
X154899286Y-138860057D01*
X154801956Y-138792543D01*
X154739867Y-138741556D01*
X154736605Y-138837622D01*
X154733343Y-138933689D01*
X154310450Y-138933689D01*
X154299543Y-138933686D01*
X154205056Y-138933380D01*
X154118331Y-138932616D01*
X154041837Y-138931451D01*
X153978043Y-138929942D01*
X153929418Y-138928147D01*
X153898433Y-138926121D01*
X153887556Y-138923922D01*
X153887578Y-138923463D01*
X153894614Y-138907910D01*
X153910434Y-138885071D01*
X153914734Y-138879638D01*
X153925777Y-138865606D01*
X153935311Y-138852186D01*
X153943461Y-138837722D01*
X153950352Y-138820556D01*
X153956111Y-138799034D01*
X153960862Y-138771498D01*
X153964731Y-138736292D01*
X153967844Y-138691760D01*
X153970325Y-138636246D01*
X153972300Y-138568093D01*
X153973894Y-138485645D01*
X153975234Y-138387246D01*
X153976444Y-138271239D01*
X153977649Y-138135968D01*
X153978595Y-138024586D01*
X154779378Y-138024586D01*
X154779378Y-138220462D01*
X154824048Y-138276973D01*
X154836785Y-138292212D01*
X154883604Y-138334844D01*
X154944255Y-138370672D01*
X154954897Y-138375850D01*
X154993676Y-138392745D01*
X155028692Y-138402909D01*
X155068722Y-138408325D01*
X155122541Y-138410978D01*
X155140648Y-138411383D01*
X155216011Y-138408540D01*
X155276743Y-138396620D01*
X155328452Y-138374037D01*
X155376746Y-138339211D01*
X155381803Y-138334798D01*
X155430272Y-138279160D01*
X155458459Y-138215333D01*
X155467752Y-138140282D01*
X155460520Y-138068693D01*
X155435796Y-138005645D01*
X155391249Y-137947758D01*
X155336319Y-137900808D01*
X155263894Y-137860961D01*
X155177340Y-137833263D01*
X155074670Y-137817096D01*
X154953894Y-137811842D01*
X154945007Y-137811857D01*
X154889660Y-137812655D01*
X154842736Y-137814488D01*
X154808953Y-137817111D01*
X154793028Y-137820274D01*
X154788943Y-137826741D01*
X154784572Y-137848875D01*
X154781604Y-137887988D01*
X154779914Y-137945939D01*
X154779378Y-138024586D01*
X153978595Y-138024586D01*
X153978975Y-137979778D01*
X153980228Y-137837012D01*
X153981651Y-137691942D01*
X153983176Y-137566027D01*
X153984933Y-137457436D01*
X153987051Y-137364334D01*
X153989660Y-137284891D01*
X153992890Y-137217273D01*
X153996869Y-137159649D01*
X154001728Y-137110185D01*
X154007597Y-137067050D01*
X154014604Y-137028410D01*
X154022880Y-136992434D01*
X154032554Y-136957289D01*
X154043756Y-136921142D01*
X154056616Y-136882161D01*
X154072090Y-136839091D01*
X154114994Y-136746871D01*
X154168735Y-136667099D01*
X154237576Y-136592965D01*
X154315185Y-136529405D01*
X154419761Y-136467725D01*
X154539244Y-136420202D01*
X154674508Y-136386567D01*
X154826426Y-136366552D01*
X154995872Y-136359889D01*
X155053890Y-136360287D01*
X155119398Y-136362335D01*
X155180693Y-136366704D01*
X155242097Y-136374035D01*
X155307932Y-136384969D01*
X155382520Y-136400147D01*
X155470184Y-136420209D01*
X155575245Y-136445797D01*
X155603806Y-136452820D01*
X155679054Y-136470776D01*
X155749388Y-136486820D01*
X155810567Y-136500028D01*
X155858354Y-136509474D01*
X155888511Y-136514231D01*
X155916783Y-136517910D01*
X155943060Y-136523187D01*
X155953059Y-136527942D01*
X155949952Y-136536781D01*
X155939194Y-136564072D01*
X155921864Y-136606906D01*
X155899126Y-136662425D01*
X155872147Y-136727772D01*
X155842090Y-136800089D01*
X155835493Y-136815879D01*
X155796907Y-136906484D01*
X155765768Y-136976217D01*
X155741917Y-137025405D01*
X155725198Y-137054374D01*
X155715454Y-137063452D01*
X155707766Y-137061405D01*
X155681415Y-137051760D01*
X155642982Y-137036190D01*
X155597822Y-137016815D01*
X155503293Y-136978814D01*
X155366480Y-136937780D01*
X155225289Y-136912612D01*
X155187314Y-136908611D01*
X155084059Y-136906447D01*
X154996952Y-136919622D01*
X154925129Y-136948756D01*
X154867731Y-136994466D01*
X154823896Y-137057372D01*
X154792762Y-137138092D01*
X154773470Y-137237245D01*
X154766050Y-137296224D01*
X154927936Y-137289445D01*
X155054495Y-137287813D01*
X155205951Y-137294194D01*
X155354396Y-137308777D01*
X155490578Y-137330882D01*
X155555245Y-137345821D01*
X155687490Y-137388741D01*
X155809762Y-137445340D01*
X155919685Y-137514017D01*
X156014883Y-137593170D01*
X156092980Y-137681196D01*
X156151599Y-137776493D01*
X156175595Y-137828864D01*
X156201232Y-137899590D01*
X156217478Y-137970812D01*
X156225822Y-138049712D01*
X156227690Y-138140282D01*
X156227755Y-138143467D01*
G37*
X163775614Y-135611792D02*
X163776059Y-135743011D01*
X163776362Y-135890216D01*
X163776548Y-136054349D01*
X163776642Y-136236352D01*
X163776671Y-136437165D01*
X163776661Y-136657732D01*
X163776636Y-136898992D01*
X163776622Y-137161889D01*
X163776622Y-137204040D01*
X163776646Y-137464668D01*
X163776685Y-137703796D01*
X163776708Y-137922360D01*
X163776687Y-138121295D01*
X163776593Y-138301535D01*
X163776395Y-138464015D01*
X163776063Y-138609670D01*
X163775569Y-138739434D01*
X163774883Y-138854243D01*
X163773976Y-138955030D01*
X163772817Y-139042730D01*
X163771378Y-139118279D01*
X163769629Y-139182611D01*
X163767540Y-139236661D01*
X163765083Y-139281363D01*
X163762227Y-139317652D01*
X163758943Y-139346463D01*
X163755202Y-139368731D01*
X163750974Y-139385390D01*
X163746229Y-139397375D01*
X163740939Y-139405621D01*
X163735073Y-139411062D01*
X163728602Y-139414634D01*
X163721497Y-139417270D01*
X163713728Y-139419906D01*
X163705266Y-139423477D01*
X163700908Y-139425145D01*
X163692395Y-139427111D01*
X163679694Y-139428911D01*
X163661885Y-139430555D01*
X163638049Y-139432047D01*
X163607266Y-139433397D01*
X163568617Y-139434611D01*
X163521182Y-139435697D01*
X163464043Y-139436661D01*
X163396279Y-139437511D01*
X163316971Y-139438253D01*
X163225199Y-139438897D01*
X163120044Y-139439447D01*
X163000587Y-139439913D01*
X162865908Y-139440300D01*
X162715088Y-139440616D01*
X162547206Y-139440869D01*
X162361345Y-139441066D01*
X162156583Y-139441213D01*
X161932002Y-139441318D01*
X161686682Y-139441389D01*
X161419704Y-139441432D01*
X161381321Y-139441437D01*
X161115922Y-139441480D01*
X160872050Y-139441525D01*
X160648783Y-139441548D01*
X160445196Y-139441524D01*
X160260367Y-139441430D01*
X160093373Y-139441243D01*
X159943290Y-139440939D01*
X159809196Y-139440494D01*
X159690166Y-139439885D01*
X159585279Y-139439089D01*
X159493610Y-139438080D01*
X159414237Y-139436837D01*
X159346237Y-139435335D01*
X159288686Y-139433551D01*
X159240662Y-139431461D01*
X159201240Y-139429042D01*
X159169499Y-139426270D01*
X159144514Y-139423121D01*
X159125364Y-139419572D01*
X159111123Y-139415598D01*
X159100871Y-139411178D01*
X159093682Y-139406286D01*
X159088635Y-139400900D01*
X159084805Y-139394996D01*
X159081271Y-139388549D01*
X159077108Y-139381537D01*
X159076025Y-139379687D01*
X159073813Y-139374180D01*
X159071786Y-139365868D01*
X159069938Y-139353809D01*
X159068261Y-139337063D01*
X159066745Y-139314687D01*
X159065383Y-139285740D01*
X159064167Y-139249280D01*
X159063089Y-139204367D01*
X159062140Y-139150057D01*
X159061312Y-139085410D01*
X159060597Y-139009484D01*
X159059987Y-138921338D01*
X159059942Y-138912493D01*
X159351378Y-138912493D01*
X159355260Y-138913765D01*
X159378520Y-138915791D01*
X159420874Y-138917626D01*
X159480132Y-138919227D01*
X159554107Y-138920549D01*
X159640610Y-138921548D01*
X159737452Y-138922180D01*
X159842445Y-138922400D01*
X160540651Y-138922400D01*
X161695090Y-138922400D01*
X161694456Y-138846200D01*
X161695574Y-138804160D01*
X161701304Y-138768334D01*
X161713890Y-138730772D01*
X161735568Y-138682577D01*
X161738789Y-138675897D01*
X161764188Y-138626359D01*
X161790996Y-138578369D01*
X161813917Y-138541466D01*
X161818485Y-138534834D01*
X161840516Y-138503593D01*
X161872693Y-138458654D01*
X161913457Y-138402147D01*
X161961245Y-138336204D01*
X162014498Y-138262957D01*
X162071655Y-138184536D01*
X162131155Y-138103072D01*
X162191437Y-138020698D01*
X162250940Y-137939544D01*
X162308105Y-137861742D01*
X162361370Y-137789423D01*
X162409174Y-137724718D01*
X162449957Y-137669759D01*
X162482158Y-137626676D01*
X162504216Y-137597602D01*
X162514571Y-137584667D01*
X162519044Y-137580351D01*
X162523236Y-137578312D01*
X162526643Y-137580926D01*
X162529325Y-137589986D01*
X162531341Y-137607285D01*
X162532748Y-137634614D01*
X162533605Y-137673765D01*
X162533970Y-137726533D01*
X162533903Y-137794707D01*
X162533460Y-137880082D01*
X162532702Y-137984449D01*
X162531685Y-138109600D01*
X162531308Y-138154300D01*
X162530169Y-138275395D01*
X162528972Y-138376688D01*
X162527636Y-138460262D01*
X162526077Y-138528204D01*
X162524215Y-138582599D01*
X162521966Y-138625532D01*
X162519248Y-138659089D01*
X162515979Y-138685355D01*
X162512078Y-138706416D01*
X162507461Y-138724357D01*
X162499192Y-138750770D01*
X162475583Y-138812772D01*
X162449685Y-138865573D01*
X162424535Y-138902645D01*
X162423339Y-138904075D01*
X162421168Y-138908424D01*
X162423328Y-138912026D01*
X162431644Y-138914951D01*
X162447940Y-138917269D01*
X162474041Y-138919051D01*
X162511771Y-138920367D01*
X162562956Y-138921286D01*
X162629420Y-138921878D01*
X162712987Y-138922215D01*
X162815483Y-138922365D01*
X162938732Y-138922400D01*
X163470296Y-138922400D01*
X163431523Y-138864783D01*
X163425432Y-138855893D01*
X163414976Y-138841069D01*
X163405579Y-138827422D01*
X163397183Y-138813765D01*
X163389733Y-138798911D01*
X163383173Y-138781670D01*
X163377446Y-138760855D01*
X163372495Y-138735280D01*
X163368266Y-138703755D01*
X163364701Y-138665093D01*
X163361744Y-138618107D01*
X163359340Y-138561608D01*
X163357431Y-138494409D01*
X163355962Y-138415322D01*
X163354876Y-138323160D01*
X163354118Y-138216734D01*
X163353630Y-138094857D01*
X163353358Y-137956341D01*
X163353243Y-137799999D01*
X163353231Y-137624642D01*
X163353265Y-137429082D01*
X163353289Y-137212133D01*
X163353280Y-137089513D01*
X163353243Y-136884447D01*
X163353227Y-136700116D01*
X163353288Y-136535334D01*
X163353484Y-136388916D01*
X163353870Y-136259674D01*
X163354505Y-136146422D01*
X163355444Y-136047975D01*
X163356745Y-135963144D01*
X163358464Y-135890744D01*
X163360659Y-135829589D01*
X163363385Y-135778492D01*
X163366701Y-135736267D01*
X163370662Y-135701727D01*
X163375325Y-135673686D01*
X163380747Y-135650958D01*
X163386986Y-135632356D01*
X163394097Y-135616693D01*
X163402138Y-135602784D01*
X163411166Y-135589441D01*
X163421236Y-135575479D01*
X163432407Y-135559711D01*
X163472197Y-135501867D01*
X162412314Y-135501867D01*
X162450311Y-135564966D01*
X162464993Y-135590005D01*
X162479531Y-135617586D01*
X162491627Y-135645700D01*
X162501532Y-135676551D01*
X162509494Y-135712344D01*
X162515761Y-135755283D01*
X162520582Y-135807574D01*
X162524206Y-135871419D01*
X162526881Y-135949025D01*
X162528857Y-136042594D01*
X162530382Y-136154333D01*
X162531704Y-136286445D01*
X162532613Y-136406434D01*
X162533020Y-136523063D01*
X162532767Y-136618531D01*
X162531857Y-136692556D01*
X162530293Y-136744855D01*
X162528079Y-136775149D01*
X162525220Y-136783156D01*
X162522161Y-136779858D01*
X162504006Y-136758408D01*
X162474275Y-136721889D01*
X162434639Y-136672442D01*
X162386771Y-136612207D01*
X162332343Y-136543327D01*
X162273027Y-136467943D01*
X162210495Y-136388196D01*
X162146421Y-136306228D01*
X162082475Y-136224180D01*
X162020331Y-136144194D01*
X161961661Y-136068411D01*
X161908137Y-135998973D01*
X161861430Y-135938021D01*
X161823214Y-135887696D01*
X161795161Y-135850140D01*
X161778943Y-135827495D01*
X161733635Y-135755212D01*
X161693661Y-135675463D01*
X161672130Y-135607188D01*
X161668827Y-135549844D01*
X161674116Y-135501867D01*
X160542356Y-135502117D01*
X160581867Y-135532722D01*
X160591248Y-135540089D01*
X160654183Y-135594438D01*
X160722997Y-135662259D01*
X160799596Y-135745516D01*
X160885888Y-135846178D01*
X160903052Y-135866847D01*
X160943833Y-135916409D01*
X160993588Y-135977326D01*
X161050955Y-136047898D01*
X161114569Y-136126424D01*
X161183069Y-136211204D01*
X161255090Y-136300537D01*
X161329270Y-136392722D01*
X161344517Y-136411702D01*
X161404246Y-136486060D01*
X161478653Y-136578848D01*
X161551131Y-136669388D01*
X161620314Y-136755978D01*
X161684841Y-136836918D01*
X161743347Y-136910506D01*
X161794470Y-136975044D01*
X161836847Y-137028829D01*
X161869115Y-137070162D01*
X161889910Y-137097342D01*
X161897869Y-137108668D01*
X161896111Y-137112771D01*
X161883230Y-137133334D01*
X161858885Y-137169561D01*
X161824247Y-137219824D01*
X161780486Y-137282492D01*
X161728775Y-137355936D01*
X161670284Y-137438527D01*
X161606184Y-137528636D01*
X161537646Y-137624631D01*
X161465843Y-137724885D01*
X161391944Y-137827768D01*
X161317121Y-137931650D01*
X161242545Y-138034901D01*
X161169387Y-138135892D01*
X161098819Y-138232994D01*
X161032011Y-138324577D01*
X160970135Y-138409011D01*
X160914361Y-138484667D01*
X160865862Y-138549916D01*
X160825807Y-138603128D01*
X160795369Y-138642673D01*
X160774944Y-138668026D01*
X160728899Y-138722295D01*
X160678612Y-138778775D01*
X160631815Y-138828669D01*
X160540651Y-138922400D01*
X159842445Y-138922400D01*
X159911356Y-138922349D01*
X160009607Y-138922091D01*
X160099030Y-138921637D01*
X160177333Y-138921010D01*
X160242223Y-138920235D01*
X160291411Y-138919335D01*
X160322604Y-138918334D01*
X160333511Y-138917257D01*
X160332322Y-138914037D01*
X160322176Y-138896452D01*
X160305040Y-138870158D01*
X160296540Y-138857691D01*
X160287329Y-138843622D01*
X160279233Y-138829351D01*
X160272185Y-138813479D01*
X160266117Y-138794609D01*
X160260961Y-138771341D01*
X160256651Y-138742278D01*
X160253119Y-138706021D01*
X160250297Y-138661170D01*
X160248118Y-138606328D01*
X160246514Y-138540097D01*
X160245419Y-138461077D01*
X160244765Y-138367871D01*
X160244484Y-138259079D01*
X160244509Y-138133303D01*
X160244772Y-137989145D01*
X160245206Y-137825207D01*
X160245745Y-137640089D01*
X160246279Y-137461232D01*
X160246805Y-137302374D01*
X160247350Y-137163316D01*
X160247945Y-137042665D01*
X160248619Y-136939028D01*
X160249403Y-136851011D01*
X160250326Y-136777223D01*
X160251419Y-136716269D01*
X160252712Y-136666757D01*
X160254235Y-136627293D01*
X160256019Y-136596484D01*
X160258092Y-136572938D01*
X160260486Y-136555260D01*
X160263230Y-136542059D01*
X160266356Y-136531940D01*
X160269892Y-136523511D01*
X160273791Y-136515375D01*
X160293438Y-136478544D01*
X160312225Y-136448391D01*
X160313272Y-136446908D01*
X160327602Y-136424659D01*
X160333511Y-136411702D01*
X160332504Y-136411249D01*
X160315305Y-136409803D01*
X160278656Y-136408480D01*
X160224962Y-136407316D01*
X160156630Y-136406347D01*
X160076064Y-136405611D01*
X159985670Y-136405142D01*
X159887853Y-136404978D01*
X159442195Y-136404978D01*
X159439120Y-137581845D01*
X159436045Y-138758711D01*
X159409407Y-138817622D01*
X159397485Y-138842183D01*
X159380246Y-138872434D01*
X159367074Y-138889560D01*
X159359076Y-138897591D01*
X159351378Y-138912493D01*
X159059942Y-138912493D01*
X159059474Y-138820029D01*
X159059050Y-138704617D01*
X159058706Y-138574160D01*
X159058434Y-138427716D01*
X159058227Y-138264344D01*
X159058076Y-138083101D01*
X159057972Y-137883048D01*
X159057908Y-137663241D01*
X159057876Y-137422739D01*
X159057867Y-137160602D01*
X159057867Y-134969031D01*
X159096249Y-134930649D01*
X159123355Y-134906911D01*
X159150253Y-134895111D01*
X159186560Y-134892267D01*
X159238489Y-134892267D01*
X159238489Y-134980206D01*
X159240427Y-135030102D01*
X159259199Y-135140523D01*
X159296217Y-135241987D01*
X159349369Y-135333152D01*
X159416546Y-135412673D01*
X159495638Y-135479205D01*
X159584534Y-135531406D01*
X159681125Y-135567930D01*
X159783300Y-135587434D01*
X159888950Y-135588573D01*
X159995964Y-135570005D01*
X160102232Y-135530384D01*
X160199219Y-135472516D01*
X160284293Y-135397684D01*
X160353015Y-135309615D01*
X160403918Y-135210616D01*
X160435535Y-135102993D01*
X160446400Y-134989054D01*
X160446400Y-134892267D01*
X162066753Y-134892267D01*
X162277897Y-134892280D01*
X162482020Y-134892330D01*
X162665686Y-134892430D01*
X162829991Y-134892592D01*
X162976029Y-134892829D01*
X163104894Y-134893153D01*
X163217683Y-134893575D01*
X163315488Y-134894109D01*
X163399404Y-134894767D01*
X163470527Y-134895561D01*
X163529950Y-134896504D01*
X163578768Y-134897608D01*
X163618077Y-134898884D01*
X163648969Y-134900347D01*
X163672541Y-134902007D01*
X163689886Y-134903878D01*
X163702099Y-134905972D01*
X163710275Y-134908300D01*
X163715508Y-134910876D01*
X163721504Y-134914445D01*
X163728279Y-134917978D01*
X163734478Y-134921488D01*
X163740126Y-134925918D01*
X163745247Y-134932208D01*
X163749869Y-134941301D01*
X163754015Y-134954139D01*
X163757713Y-134971662D01*
X163760987Y-134994813D01*
X163763863Y-135024534D01*
X163766367Y-135061765D01*
X163768524Y-135107449D01*
X163770360Y-135162527D01*
X163771900Y-135227941D01*
X163773170Y-135304633D01*
X163774195Y-135393544D01*
X163775001Y-135495617D01*
X163775034Y-135501867D01*
X163775614Y-135611792D01*
G36*
X163775614Y-135611792D02*
G01*
X163776059Y-135743011D01*
X163776362Y-135890216D01*
X163776548Y-136054349D01*
X163776642Y-136236352D01*
X163776671Y-136437165D01*
X163776661Y-136657732D01*
X163776636Y-136898992D01*
X163776622Y-137161889D01*
X163776622Y-137204040D01*
X163776646Y-137464668D01*
X163776685Y-137703796D01*
X163776708Y-137922360D01*
X163776687Y-138121295D01*
X163776593Y-138301535D01*
X163776395Y-138464015D01*
X163776063Y-138609670D01*
X163775569Y-138739434D01*
X163774883Y-138854243D01*
X163773976Y-138955030D01*
X163772817Y-139042730D01*
X163771378Y-139118279D01*
X163769629Y-139182611D01*
X163767540Y-139236661D01*
X163765083Y-139281363D01*
X163762227Y-139317652D01*
X163758943Y-139346463D01*
X163755202Y-139368731D01*
X163750974Y-139385390D01*
X163746229Y-139397375D01*
X163740939Y-139405621D01*
X163735073Y-139411062D01*
X163728602Y-139414634D01*
X163721497Y-139417270D01*
X163713728Y-139419906D01*
X163705266Y-139423477D01*
X163700908Y-139425145D01*
X163692395Y-139427111D01*
X163679694Y-139428911D01*
X163661885Y-139430555D01*
X163638049Y-139432047D01*
X163607266Y-139433397D01*
X163568617Y-139434611D01*
X163521182Y-139435697D01*
X163464043Y-139436661D01*
X163396279Y-139437511D01*
X163316971Y-139438253D01*
X163225199Y-139438897D01*
X163120044Y-139439447D01*
X163000587Y-139439913D01*
X162865908Y-139440300D01*
X162715088Y-139440616D01*
X162547206Y-139440869D01*
X162361345Y-139441066D01*
X162156583Y-139441213D01*
X161932002Y-139441318D01*
X161686682Y-139441389D01*
X161419704Y-139441432D01*
X161381321Y-139441437D01*
X161115922Y-139441480D01*
X160872050Y-139441525D01*
X160648783Y-139441548D01*
X160445196Y-139441524D01*
X160260367Y-139441430D01*
X160093373Y-139441243D01*
X159943290Y-139440939D01*
X159809196Y-139440494D01*
X159690166Y-139439885D01*
X159585279Y-139439089D01*
X159493610Y-139438080D01*
X159414237Y-139436837D01*
X159346237Y-139435335D01*
X159288686Y-139433551D01*
X159240662Y-139431461D01*
X159201240Y-139429042D01*
X159169499Y-139426270D01*
X159144514Y-139423121D01*
X159125364Y-139419572D01*
X159111123Y-139415598D01*
X159100871Y-139411178D01*
X159093682Y-139406286D01*
X159088635Y-139400900D01*
X159084805Y-139394996D01*
X159081271Y-139388549D01*
X159077108Y-139381537D01*
X159076025Y-139379687D01*
X159073813Y-139374180D01*
X159071786Y-139365868D01*
X159069938Y-139353809D01*
X159068261Y-139337063D01*
X159066745Y-139314687D01*
X159065383Y-139285740D01*
X159064167Y-139249280D01*
X159063089Y-139204367D01*
X159062140Y-139150057D01*
X159061312Y-139085410D01*
X159060597Y-139009484D01*
X159059987Y-138921338D01*
X159059942Y-138912493D01*
X159351378Y-138912493D01*
X159355260Y-138913765D01*
X159378520Y-138915791D01*
X159420874Y-138917626D01*
X159480132Y-138919227D01*
X159554107Y-138920549D01*
X159640610Y-138921548D01*
X159737452Y-138922180D01*
X159842445Y-138922400D01*
X160540651Y-138922400D01*
X161695090Y-138922400D01*
X161694456Y-138846200D01*
X161695574Y-138804160D01*
X161701304Y-138768334D01*
X161713890Y-138730772D01*
X161735568Y-138682577D01*
X161738789Y-138675897D01*
X161764188Y-138626359D01*
X161790996Y-138578369D01*
X161813917Y-138541466D01*
X161818485Y-138534834D01*
X161840516Y-138503593D01*
X161872693Y-138458654D01*
X161913457Y-138402147D01*
X161961245Y-138336204D01*
X162014498Y-138262957D01*
X162071655Y-138184536D01*
X162131155Y-138103072D01*
X162191437Y-138020698D01*
X162250940Y-137939544D01*
X162308105Y-137861742D01*
X162361370Y-137789423D01*
X162409174Y-137724718D01*
X162449957Y-137669759D01*
X162482158Y-137626676D01*
X162504216Y-137597602D01*
X162514571Y-137584667D01*
X162519044Y-137580351D01*
X162523236Y-137578312D01*
X162526643Y-137580926D01*
X162529325Y-137589986D01*
X162531341Y-137607285D01*
X162532748Y-137634614D01*
X162533605Y-137673765D01*
X162533970Y-137726533D01*
X162533903Y-137794707D01*
X162533460Y-137880082D01*
X162532702Y-137984449D01*
X162531685Y-138109600D01*
X162531308Y-138154300D01*
X162530169Y-138275395D01*
X162528972Y-138376688D01*
X162527636Y-138460262D01*
X162526077Y-138528204D01*
X162524215Y-138582599D01*
X162521966Y-138625532D01*
X162519248Y-138659089D01*
X162515979Y-138685355D01*
X162512078Y-138706416D01*
X162507461Y-138724357D01*
X162499192Y-138750770D01*
X162475583Y-138812772D01*
X162449685Y-138865573D01*
X162424535Y-138902645D01*
X162423339Y-138904075D01*
X162421168Y-138908424D01*
X162423328Y-138912026D01*
X162431644Y-138914951D01*
X162447940Y-138917269D01*
X162474041Y-138919051D01*
X162511771Y-138920367D01*
X162562956Y-138921286D01*
X162629420Y-138921878D01*
X162712987Y-138922215D01*
X162815483Y-138922365D01*
X162938732Y-138922400D01*
X163470296Y-138922400D01*
X163431523Y-138864783D01*
X163425432Y-138855893D01*
X163414976Y-138841069D01*
X163405579Y-138827422D01*
X163397183Y-138813765D01*
X163389733Y-138798911D01*
X163383173Y-138781670D01*
X163377446Y-138760855D01*
X163372495Y-138735280D01*
X163368266Y-138703755D01*
X163364701Y-138665093D01*
X163361744Y-138618107D01*
X163359340Y-138561608D01*
X163357431Y-138494409D01*
X163355962Y-138415322D01*
X163354876Y-138323160D01*
X163354118Y-138216734D01*
X163353630Y-138094857D01*
X163353358Y-137956341D01*
X163353243Y-137799999D01*
X163353231Y-137624642D01*
X163353265Y-137429082D01*
X163353289Y-137212133D01*
X163353280Y-137089513D01*
X163353243Y-136884447D01*
X163353227Y-136700116D01*
X163353288Y-136535334D01*
X163353484Y-136388916D01*
X163353870Y-136259674D01*
X163354505Y-136146422D01*
X163355444Y-136047975D01*
X163356745Y-135963144D01*
X163358464Y-135890744D01*
X163360659Y-135829589D01*
X163363385Y-135778492D01*
X163366701Y-135736267D01*
X163370662Y-135701727D01*
X163375325Y-135673686D01*
X163380747Y-135650958D01*
X163386986Y-135632356D01*
X163394097Y-135616693D01*
X163402138Y-135602784D01*
X163411166Y-135589441D01*
X163421236Y-135575479D01*
X163432407Y-135559711D01*
X163472197Y-135501867D01*
X162412314Y-135501867D01*
X162450311Y-135564966D01*
X162464993Y-135590005D01*
X162479531Y-135617586D01*
X162491627Y-135645700D01*
X162501532Y-135676551D01*
X162509494Y-135712344D01*
X162515761Y-135755283D01*
X162520582Y-135807574D01*
X162524206Y-135871419D01*
X162526881Y-135949025D01*
X162528857Y-136042594D01*
X162530382Y-136154333D01*
X162531704Y-136286445D01*
X162532613Y-136406434D01*
X162533020Y-136523063D01*
X162532767Y-136618531D01*
X162531857Y-136692556D01*
X162530293Y-136744855D01*
X162528079Y-136775149D01*
X162525220Y-136783156D01*
X162522161Y-136779858D01*
X162504006Y-136758408D01*
X162474275Y-136721889D01*
X162434639Y-136672442D01*
X162386771Y-136612207D01*
X162332343Y-136543327D01*
X162273027Y-136467943D01*
X162210495Y-136388196D01*
X162146421Y-136306228D01*
X162082475Y-136224180D01*
X162020331Y-136144194D01*
X161961661Y-136068411D01*
X161908137Y-135998973D01*
X161861430Y-135938021D01*
X161823214Y-135887696D01*
X161795161Y-135850140D01*
X161778943Y-135827495D01*
X161733635Y-135755212D01*
X161693661Y-135675463D01*
X161672130Y-135607188D01*
X161668827Y-135549844D01*
X161674116Y-135501867D01*
X160542356Y-135502117D01*
X160581867Y-135532722D01*
X160591248Y-135540089D01*
X160654183Y-135594438D01*
X160722997Y-135662259D01*
X160799596Y-135745516D01*
X160885888Y-135846178D01*
X160903052Y-135866847D01*
X160943833Y-135916409D01*
X160993588Y-135977326D01*
X161050955Y-136047898D01*
X161114569Y-136126424D01*
X161183069Y-136211204D01*
X161255090Y-136300537D01*
X161329270Y-136392722D01*
X161344517Y-136411702D01*
X161404246Y-136486060D01*
X161478653Y-136578848D01*
X161551131Y-136669388D01*
X161620314Y-136755978D01*
X161684841Y-136836918D01*
X161743347Y-136910506D01*
X161794470Y-136975044D01*
X161836847Y-137028829D01*
X161869115Y-137070162D01*
X161889910Y-137097342D01*
X161897869Y-137108668D01*
X161896111Y-137112771D01*
X161883230Y-137133334D01*
X161858885Y-137169561D01*
X161824247Y-137219824D01*
X161780486Y-137282492D01*
X161728775Y-137355936D01*
X161670284Y-137438527D01*
X161606184Y-137528636D01*
X161537646Y-137624631D01*
X161465843Y-137724885D01*
X161391944Y-137827768D01*
X161317121Y-137931650D01*
X161242545Y-138034901D01*
X161169387Y-138135892D01*
X161098819Y-138232994D01*
X161032011Y-138324577D01*
X160970135Y-138409011D01*
X160914361Y-138484667D01*
X160865862Y-138549916D01*
X160825807Y-138603128D01*
X160795369Y-138642673D01*
X160774944Y-138668026D01*
X160728899Y-138722295D01*
X160678612Y-138778775D01*
X160631815Y-138828669D01*
X160540651Y-138922400D01*
X159842445Y-138922400D01*
X159911356Y-138922349D01*
X160009607Y-138922091D01*
X160099030Y-138921637D01*
X160177333Y-138921010D01*
X160242223Y-138920235D01*
X160291411Y-138919335D01*
X160322604Y-138918334D01*
X160333511Y-138917257D01*
X160332322Y-138914037D01*
X160322176Y-138896452D01*
X160305040Y-138870158D01*
X160296540Y-138857691D01*
X160287329Y-138843622D01*
X160279233Y-138829351D01*
X160272185Y-138813479D01*
X160266117Y-138794609D01*
X160260961Y-138771341D01*
X160256651Y-138742278D01*
X160253119Y-138706021D01*
X160250297Y-138661170D01*
X160248118Y-138606328D01*
X160246514Y-138540097D01*
X160245419Y-138461077D01*
X160244765Y-138367871D01*
X160244484Y-138259079D01*
X160244509Y-138133303D01*
X160244772Y-137989145D01*
X160245206Y-137825207D01*
X160245745Y-137640089D01*
X160246279Y-137461232D01*
X160246805Y-137302374D01*
X160247350Y-137163316D01*
X160247945Y-137042665D01*
X160248619Y-136939028D01*
X160249403Y-136851011D01*
X160250326Y-136777223D01*
X160251419Y-136716269D01*
X160252712Y-136666757D01*
X160254235Y-136627293D01*
X160256019Y-136596484D01*
X160258092Y-136572938D01*
X160260486Y-136555260D01*
X160263230Y-136542059D01*
X160266356Y-136531940D01*
X160269892Y-136523511D01*
X160273791Y-136515375D01*
X160293438Y-136478544D01*
X160312225Y-136448391D01*
X160313272Y-136446908D01*
X160327602Y-136424659D01*
X160333511Y-136411702D01*
X160332504Y-136411249D01*
X160315305Y-136409803D01*
X160278656Y-136408480D01*
X160224962Y-136407316D01*
X160156630Y-136406347D01*
X160076064Y-136405611D01*
X159985670Y-136405142D01*
X159887853Y-136404978D01*
X159442195Y-136404978D01*
X159439120Y-137581845D01*
X159436045Y-138758711D01*
X159409407Y-138817622D01*
X159397485Y-138842183D01*
X159380246Y-138872434D01*
X159367074Y-138889560D01*
X159359076Y-138897591D01*
X159351378Y-138912493D01*
X159059942Y-138912493D01*
X159059474Y-138820029D01*
X159059050Y-138704617D01*
X159058706Y-138574160D01*
X159058434Y-138427716D01*
X159058227Y-138264344D01*
X159058076Y-138083101D01*
X159057972Y-137883048D01*
X159057908Y-137663241D01*
X159057876Y-137422739D01*
X159057867Y-137160602D01*
X159057867Y-134969031D01*
X159096249Y-134930649D01*
X159123355Y-134906911D01*
X159150253Y-134895111D01*
X159186560Y-134892267D01*
X159238489Y-134892267D01*
X159238489Y-134980206D01*
X159240427Y-135030102D01*
X159259199Y-135140523D01*
X159296217Y-135241987D01*
X159349369Y-135333152D01*
X159416546Y-135412673D01*
X159495638Y-135479205D01*
X159584534Y-135531406D01*
X159681125Y-135567930D01*
X159783300Y-135587434D01*
X159888950Y-135588573D01*
X159995964Y-135570005D01*
X160102232Y-135530384D01*
X160199219Y-135472516D01*
X160284293Y-135397684D01*
X160353015Y-135309615D01*
X160403918Y-135210616D01*
X160435535Y-135102993D01*
X160446400Y-134989054D01*
X160446400Y-134892267D01*
X162066753Y-134892267D01*
X162277897Y-134892280D01*
X162482020Y-134892330D01*
X162665686Y-134892430D01*
X162829991Y-134892592D01*
X162976029Y-134892829D01*
X163104894Y-134893153D01*
X163217683Y-134893575D01*
X163315488Y-134894109D01*
X163399404Y-134894767D01*
X163470527Y-134895561D01*
X163529950Y-134896504D01*
X163578768Y-134897608D01*
X163618077Y-134898884D01*
X163648969Y-134900347D01*
X163672541Y-134902007D01*
X163689886Y-134903878D01*
X163702099Y-134905972D01*
X163710275Y-134908300D01*
X163715508Y-134910876D01*
X163721504Y-134914445D01*
X163728279Y-134917978D01*
X163734478Y-134921488D01*
X163740126Y-134925918D01*
X163745247Y-134932208D01*
X163749869Y-134941301D01*
X163754015Y-134954139D01*
X163757713Y-134971662D01*
X163760987Y-134994813D01*
X163763863Y-135024534D01*
X163766367Y-135061765D01*
X163768524Y-135107449D01*
X163770360Y-135162527D01*
X163771900Y-135227941D01*
X163773170Y-135304633D01*
X163774195Y-135393544D01*
X163775001Y-135495617D01*
X163775034Y-135501867D01*
X163775614Y-135611792D01*
G37*
%TD*%
M02*
