%TF.GenerationSoftware,KiCad,Pcbnew,9.0.5*%
%TF.CreationDate,2025-11-10T11:20:35-08:00*%
%TF.ProjectId,project1_LED_Torch,70726f6a-6563-4743-915f-4c45445f546f,-*%
%TF.SameCoordinates,Original*%
%TF.FileFunction,Legend,Top*%
%TF.FilePolarity,Positive*%
%FSLAX46Y46*%
G04 Gerber Fmt 4.6, Leading zero omitted, Abs format (unit mm)*
G04 Created by KiCad (PCBNEW 9.0.5) date 2025-11-10 11:20:35*
%MOMM*%
%LPD*%
G01*
G04 APERTURE LIST*
%ADD10C,0.150000*%
%ADD11C,0.120000*%
G04 APERTURE END LIST*
D10*
X117736779Y-137588866D02*
X118498684Y-137588866D01*
X117736779Y-145388866D02*
X118498684Y-145388866D01*
X118117731Y-145769819D02*
X118117731Y-145007914D01*
X133921667Y-137636000D02*
X134064524Y-137683619D01*
X134064524Y-137683619D02*
X134302619Y-137683619D01*
X134302619Y-137683619D02*
X134397857Y-137636000D01*
X134397857Y-137636000D02*
X134445476Y-137588380D01*
X134445476Y-137588380D02*
X134493095Y-137493142D01*
X134493095Y-137493142D02*
X134493095Y-137397904D01*
X134493095Y-137397904D02*
X134445476Y-137302666D01*
X134445476Y-137302666D02*
X134397857Y-137255047D01*
X134397857Y-137255047D02*
X134302619Y-137207428D01*
X134302619Y-137207428D02*
X134112143Y-137159809D01*
X134112143Y-137159809D02*
X134016905Y-137112190D01*
X134016905Y-137112190D02*
X133969286Y-137064571D01*
X133969286Y-137064571D02*
X133921667Y-136969333D01*
X133921667Y-136969333D02*
X133921667Y-136874095D01*
X133921667Y-136874095D02*
X133969286Y-136778857D01*
X133969286Y-136778857D02*
X134016905Y-136731238D01*
X134016905Y-136731238D02*
X134112143Y-136683619D01*
X134112143Y-136683619D02*
X134350238Y-136683619D01*
X134350238Y-136683619D02*
X134493095Y-136731238D01*
X134826429Y-136683619D02*
X135064524Y-137683619D01*
X135064524Y-137683619D02*
X135255000Y-136969333D01*
X135255000Y-136969333D02*
X135445476Y-137683619D01*
X135445476Y-137683619D02*
X135683572Y-136683619D01*
X136588333Y-137683619D02*
X136016905Y-137683619D01*
X136302619Y-137683619D02*
X136302619Y-136683619D01*
X136302619Y-136683619D02*
X136207381Y-136826476D01*
X136207381Y-136826476D02*
X136112143Y-136921714D01*
X136112143Y-136921714D02*
X136016905Y-136969333D01*
X156059285Y-149079809D02*
X156202142Y-149127428D01*
X156202142Y-149127428D02*
X156249761Y-149175047D01*
X156249761Y-149175047D02*
X156297380Y-149270285D01*
X156297380Y-149270285D02*
X156297380Y-149413142D01*
X156297380Y-149413142D02*
X156249761Y-149508380D01*
X156249761Y-149508380D02*
X156202142Y-149556000D01*
X156202142Y-149556000D02*
X156106904Y-149603619D01*
X156106904Y-149603619D02*
X155725952Y-149603619D01*
X155725952Y-149603619D02*
X155725952Y-148603619D01*
X155725952Y-148603619D02*
X156059285Y-148603619D01*
X156059285Y-148603619D02*
X156154523Y-148651238D01*
X156154523Y-148651238D02*
X156202142Y-148698857D01*
X156202142Y-148698857D02*
X156249761Y-148794095D01*
X156249761Y-148794095D02*
X156249761Y-148889333D01*
X156249761Y-148889333D02*
X156202142Y-148984571D01*
X156202142Y-148984571D02*
X156154523Y-149032190D01*
X156154523Y-149032190D02*
X156059285Y-149079809D01*
X156059285Y-149079809D02*
X155725952Y-149079809D01*
X156583095Y-148603619D02*
X157154523Y-148603619D01*
X156868809Y-149603619D02*
X156868809Y-148603619D01*
X158011666Y-149603619D02*
X157440238Y-149603619D01*
X157725952Y-149603619D02*
X157725952Y-148603619D01*
X157725952Y-148603619D02*
X157630714Y-148746476D01*
X157630714Y-148746476D02*
X157535476Y-148841714D01*
X157535476Y-148841714D02*
X157440238Y-148889333D01*
X153847618Y-130331009D02*
X153990475Y-130378628D01*
X153990475Y-130378628D02*
X154038094Y-130426247D01*
X154038094Y-130426247D02*
X154085713Y-130521485D01*
X154085713Y-130521485D02*
X154085713Y-130664342D01*
X154085713Y-130664342D02*
X154038094Y-130759580D01*
X154038094Y-130759580D02*
X153990475Y-130807200D01*
X153990475Y-130807200D02*
X153895237Y-130854819D01*
X153895237Y-130854819D02*
X153514285Y-130854819D01*
X153514285Y-130854819D02*
X153514285Y-129854819D01*
X153514285Y-129854819D02*
X153847618Y-129854819D01*
X153847618Y-129854819D02*
X153942856Y-129902438D01*
X153942856Y-129902438D02*
X153990475Y-129950057D01*
X153990475Y-129950057D02*
X154038094Y-130045295D01*
X154038094Y-130045295D02*
X154038094Y-130140533D01*
X154038094Y-130140533D02*
X153990475Y-130235771D01*
X153990475Y-130235771D02*
X153942856Y-130283390D01*
X153942856Y-130283390D02*
X153847618Y-130331009D01*
X153847618Y-130331009D02*
X153514285Y-130331009D01*
X154942856Y-130854819D02*
X154942856Y-130331009D01*
X154942856Y-130331009D02*
X154895237Y-130235771D01*
X154895237Y-130235771D02*
X154799999Y-130188152D01*
X154799999Y-130188152D02*
X154609523Y-130188152D01*
X154609523Y-130188152D02*
X154514285Y-130235771D01*
X154942856Y-130807200D02*
X154847618Y-130854819D01*
X154847618Y-130854819D02*
X154609523Y-130854819D01*
X154609523Y-130854819D02*
X154514285Y-130807200D01*
X154514285Y-130807200D02*
X154466666Y-130711961D01*
X154466666Y-130711961D02*
X154466666Y-130616723D01*
X154466666Y-130616723D02*
X154514285Y-130521485D01*
X154514285Y-130521485D02*
X154609523Y-130473866D01*
X154609523Y-130473866D02*
X154847618Y-130473866D01*
X154847618Y-130473866D02*
X154942856Y-130426247D01*
X155276190Y-130188152D02*
X155657142Y-130188152D01*
X155419047Y-129854819D02*
X155419047Y-130711961D01*
X155419047Y-130711961D02*
X155466666Y-130807200D01*
X155466666Y-130807200D02*
X155561904Y-130854819D01*
X155561904Y-130854819D02*
X155657142Y-130854819D01*
X156704762Y-129950057D02*
X156752381Y-129902438D01*
X156752381Y-129902438D02*
X156847619Y-129854819D01*
X156847619Y-129854819D02*
X157085714Y-129854819D01*
X157085714Y-129854819D02*
X157180952Y-129902438D01*
X157180952Y-129902438D02*
X157228571Y-129950057D01*
X157228571Y-129950057D02*
X157276190Y-130045295D01*
X157276190Y-130045295D02*
X157276190Y-130140533D01*
X157276190Y-130140533D02*
X157228571Y-130283390D01*
X157228571Y-130283390D02*
X156657143Y-130854819D01*
X156657143Y-130854819D02*
X157276190Y-130854819D01*
X157895238Y-129854819D02*
X157990476Y-129854819D01*
X157990476Y-129854819D02*
X158085714Y-129902438D01*
X158085714Y-129902438D02*
X158133333Y-129950057D01*
X158133333Y-129950057D02*
X158180952Y-130045295D01*
X158180952Y-130045295D02*
X158228571Y-130235771D01*
X158228571Y-130235771D02*
X158228571Y-130473866D01*
X158228571Y-130473866D02*
X158180952Y-130664342D01*
X158180952Y-130664342D02*
X158133333Y-130759580D01*
X158133333Y-130759580D02*
X158085714Y-130807200D01*
X158085714Y-130807200D02*
X157990476Y-130854819D01*
X157990476Y-130854819D02*
X157895238Y-130854819D01*
X157895238Y-130854819D02*
X157800000Y-130807200D01*
X157800000Y-130807200D02*
X157752381Y-130759580D01*
X157752381Y-130759580D02*
X157704762Y-130664342D01*
X157704762Y-130664342D02*
X157657143Y-130473866D01*
X157657143Y-130473866D02*
X157657143Y-130235771D01*
X157657143Y-130235771D02*
X157704762Y-130045295D01*
X157704762Y-130045295D02*
X157752381Y-129950057D01*
X157752381Y-129950057D02*
X157800000Y-129902438D01*
X157800000Y-129902438D02*
X157895238Y-129854819D01*
X158561905Y-129854819D02*
X159180952Y-129854819D01*
X159180952Y-129854819D02*
X158847619Y-130235771D01*
X158847619Y-130235771D02*
X158990476Y-130235771D01*
X158990476Y-130235771D02*
X159085714Y-130283390D01*
X159085714Y-130283390D02*
X159133333Y-130331009D01*
X159133333Y-130331009D02*
X159180952Y-130426247D01*
X159180952Y-130426247D02*
X159180952Y-130664342D01*
X159180952Y-130664342D02*
X159133333Y-130759580D01*
X159133333Y-130759580D02*
X159085714Y-130807200D01*
X159085714Y-130807200D02*
X158990476Y-130854819D01*
X158990476Y-130854819D02*
X158704762Y-130854819D01*
X158704762Y-130854819D02*
X158609524Y-130807200D01*
X158609524Y-130807200D02*
X158561905Y-130759580D01*
X159561905Y-129950057D02*
X159609524Y-129902438D01*
X159609524Y-129902438D02*
X159704762Y-129854819D01*
X159704762Y-129854819D02*
X159942857Y-129854819D01*
X159942857Y-129854819D02*
X160038095Y-129902438D01*
X160038095Y-129902438D02*
X160085714Y-129950057D01*
X160085714Y-129950057D02*
X160133333Y-130045295D01*
X160133333Y-130045295D02*
X160133333Y-130140533D01*
X160133333Y-130140533D02*
X160085714Y-130283390D01*
X160085714Y-130283390D02*
X159514286Y-130854819D01*
X159514286Y-130854819D02*
X160133333Y-130854819D01*
X120261905Y-137954819D02*
X120261905Y-136954819D01*
X120261905Y-136954819D02*
X120500000Y-136954819D01*
X120500000Y-136954819D02*
X120642857Y-137002438D01*
X120642857Y-137002438D02*
X120738095Y-137097676D01*
X120738095Y-137097676D02*
X120785714Y-137192914D01*
X120785714Y-137192914D02*
X120833333Y-137383390D01*
X120833333Y-137383390D02*
X120833333Y-137526247D01*
X120833333Y-137526247D02*
X120785714Y-137716723D01*
X120785714Y-137716723D02*
X120738095Y-137811961D01*
X120738095Y-137811961D02*
X120642857Y-137907200D01*
X120642857Y-137907200D02*
X120500000Y-137954819D01*
X120500000Y-137954819D02*
X120261905Y-137954819D01*
X121785714Y-137954819D02*
X121214286Y-137954819D01*
X121500000Y-137954819D02*
X121500000Y-136954819D01*
X121500000Y-136954819D02*
X121404762Y-137097676D01*
X121404762Y-137097676D02*
X121309524Y-137192914D01*
X121309524Y-137192914D02*
X121214286Y-137240533D01*
X114604819Y-142166657D02*
X114604819Y-142642847D01*
X114604819Y-142642847D02*
X113604819Y-142642847D01*
X114081009Y-141833323D02*
X114081009Y-141499990D01*
X114604819Y-141357133D02*
X114604819Y-141833323D01*
X114604819Y-141833323D02*
X113604819Y-141833323D01*
X113604819Y-141833323D02*
X113604819Y-141357133D01*
X114604819Y-140928561D02*
X113604819Y-140928561D01*
X113604819Y-140928561D02*
X113604819Y-140690466D01*
X113604819Y-140690466D02*
X113652438Y-140547609D01*
X113652438Y-140547609D02*
X113747676Y-140452371D01*
X113747676Y-140452371D02*
X113842914Y-140404752D01*
X113842914Y-140404752D02*
X114033390Y-140357133D01*
X114033390Y-140357133D02*
X114176247Y-140357133D01*
X114176247Y-140357133D02*
X114366723Y-140404752D01*
X114366723Y-140404752D02*
X114461961Y-140452371D01*
X114461961Y-140452371D02*
X114557200Y-140547609D01*
X114557200Y-140547609D02*
X114604819Y-140690466D01*
X114604819Y-140690466D02*
X114604819Y-140928561D01*
X125833333Y-143454819D02*
X125500000Y-142978628D01*
X125261905Y-143454819D02*
X125261905Y-142454819D01*
X125261905Y-142454819D02*
X125642857Y-142454819D01*
X125642857Y-142454819D02*
X125738095Y-142502438D01*
X125738095Y-142502438D02*
X125785714Y-142550057D01*
X125785714Y-142550057D02*
X125833333Y-142645295D01*
X125833333Y-142645295D02*
X125833333Y-142788152D01*
X125833333Y-142788152D02*
X125785714Y-142883390D01*
X125785714Y-142883390D02*
X125738095Y-142931009D01*
X125738095Y-142931009D02*
X125642857Y-142978628D01*
X125642857Y-142978628D02*
X125261905Y-142978628D01*
X126785714Y-143454819D02*
X126214286Y-143454819D01*
X126500000Y-143454819D02*
X126500000Y-142454819D01*
X126500000Y-142454819D02*
X126404762Y-142597676D01*
X126404762Y-142597676D02*
X126309524Y-142692914D01*
X126309524Y-142692914D02*
X126214286Y-142740533D01*
D11*
%TO.C,SW1*%
X132135000Y-142628800D02*
X132135000Y-140428800D01*
X132755000Y-138408800D02*
X137755000Y-138408800D01*
X132755000Y-144648800D02*
X137755000Y-144648800D01*
X138375000Y-140428800D02*
X138375000Y-142628800D01*
X137005000Y-141528800D02*
G75*
G02*
X133505000Y-141528800I-1750000J0D01*
G01*
X133505000Y-141528800D02*
G75*
G02*
X137005000Y-141528800I1750000J0D01*
G01*
%TO.C,BT1*%
X142535000Y-137918800D02*
X146153000Y-137918800D01*
X142535000Y-139628800D02*
X142535000Y-137918800D01*
X142535000Y-143428800D02*
X142535000Y-145138800D01*
X146153000Y-145138800D02*
X142535000Y-145138800D01*
X148997700Y-133418800D02*
X164692300Y-133418800D01*
X152985000Y-149638800D02*
X148997700Y-149638800D01*
X155185000Y-147438800D02*
X152985000Y-149638800D01*
X158505000Y-147438800D02*
X155185000Y-147438800D01*
X158505000Y-147438800D02*
X160705000Y-149638800D01*
X164692300Y-149638800D02*
X160705000Y-149638800D01*
X167537000Y-137918800D02*
X171155000Y-137918800D01*
X171155000Y-139628800D02*
X171155000Y-137918800D01*
X171155000Y-143428800D02*
X171155000Y-145138800D01*
X171155000Y-145138800D02*
X167537000Y-145138800D01*
X146153000Y-137918800D02*
G75*
G02*
X148999628Y-133417010I10692020J-3610010D01*
G01*
X148999629Y-149640589D02*
G75*
G02*
X146153000Y-145138800I7845366J8111785D01*
G01*
X164690371Y-133417011D02*
G75*
G02*
X167537000Y-137918800I-7845371J-8111789D01*
G01*
X167537000Y-145138800D02*
G75*
G02*
X164690371Y-149640589I-10692020J3610012D01*
G01*
%TO.C,D1*%
X119655000Y-138963800D02*
X116565000Y-138963800D01*
X118110000Y-144513800D02*
G75*
G02*
X116565170Y-138963800I0J2990000D01*
G01*
X119654830Y-138963800D02*
G75*
G02*
X118110000Y-144513800I-1544830J-2560000D01*
G01*
X120610000Y-141523800D02*
G75*
G02*
X115610000Y-141523800I-2500000J0D01*
G01*
X115610000Y-141523800D02*
G75*
G02*
X120610000Y-141523800I2500000J0D01*
G01*
%TO.C,R1*%
X128055000Y-138658800D02*
X128055000Y-139608800D01*
X128055000Y-144398800D02*
X128055000Y-143448800D01*
X127135000Y-143448800D02*
X128975000Y-143448800D01*
X128975000Y-139608800D01*
X127135000Y-139608800D01*
X127135000Y-143448800D01*
%TD*%
M02*
