%TF.GenerationSoftware,KiCad,Pcbnew,9.0.5*%
%TF.CreationDate,2025-11-10T11:20:35-08:00*%
%TF.ProjectId,project1_LED_Torch,70726f6a-6563-4743-915f-4c45445f546f,-*%
%TF.SameCoordinates,Original*%
%TF.FileFunction,Copper,L1,Top*%
%TF.FilePolarity,Positive*%
%FSLAX46Y46*%
G04 Gerber Fmt 4.6, Leading zero omitted, Abs format (unit mm)*
G04 Created by KiCad (PCBNEW 9.0.5) date 2025-11-10 11:20:35*
%MOMM*%
%LPD*%
G01*
G04 APERTURE LIST*
%TA.AperFunction,ComponentPad*%
%ADD10C,1.700000*%
%TD*%
%TA.AperFunction,SMDPad,CuDef*%
%ADD11R,2.540000X3.510000*%
%TD*%
%TA.AperFunction,ComponentPad*%
%ADD12R,1.800000X1.800000*%
%TD*%
%TA.AperFunction,ComponentPad*%
%ADD13C,1.800000*%
%TD*%
%TA.AperFunction,ComponentPad*%
%ADD14C,1.400000*%
%TD*%
%TA.AperFunction,Conductor*%
%ADD15C,0.200000*%
%TD*%
G04 APERTURE END LIST*
D10*
%TO.P,SW1,1,A*%
%TO.N,Net-(SW1A-A)*%
X132005000Y-139278800D03*
X138505000Y-139278800D03*
%TO.P,SW1,2,B*%
%TO.N,/bat_pos*%
X132005000Y-143778800D03*
X138505000Y-143778800D03*
%TD*%
D11*
%TO.P,BT1,1,+*%
%TO.N,/LED_cathode*%
X142165000Y-141528800D03*
%TO.P,BT1,2,-*%
%TO.N,/bat_pos*%
X171525000Y-141528800D03*
%TD*%
D12*
%TO.P,D1,1,K*%
%TO.N,/LED_cathode*%
X118110000Y-140253800D03*
D13*
%TO.P,D1,2,A*%
%TO.N,/LED_anode*%
X118110000Y-142793800D03*
%TD*%
D14*
%TO.P,R1,1*%
%TO.N,/LED_anode*%
X128055000Y-145338800D03*
%TO.P,R1,2*%
%TO.N,Net-(SW1A-A)*%
X128055000Y-137718800D03*
%TD*%
D15*
%TO.N,/LED_cathode*%
X118954823Y-139408977D02*
X126454977Y-139408977D01*
X118110000Y-140253800D02*
X118954823Y-139408977D01*
X126454977Y-139408977D02*
X128574800Y-141528800D01*
X128574800Y-141528800D02*
X142165000Y-141528800D01*
%TO.N,/bat_pos*%
X169289800Y-143764000D02*
X171525000Y-141528800D01*
X168656000Y-143764000D02*
X169289800Y-143764000D01*
X168641200Y-143778800D02*
X168656000Y-143764000D01*
X132005000Y-143778800D02*
X138505000Y-143778800D01*
X138505000Y-143778800D02*
X168641200Y-143778800D01*
%TO.N,/LED_anode*%
X128055000Y-145338800D02*
X127851800Y-145542000D01*
X120858200Y-145542000D02*
X118110000Y-142793800D01*
X127851800Y-145542000D02*
X120858200Y-145542000D01*
%TO.N,Net-(SW1A-A)*%
X128055000Y-137718800D02*
X130445000Y-137718800D01*
X130445000Y-137718800D02*
X132005000Y-139278800D01*
X132005000Y-139278800D02*
X138505000Y-139278800D01*
%TD*%
M02*
